<svg width="64" height="64" viewBox="0 0 64 64" fill="none" xmlns="http://www.w3.org/2000/svg">
<rect width="64" height="64" rx="8" fill="#F8F8F8"/>
<circle cx="34" cy="32" r="13" stroke="black" stroke-width="2"/>
<circle cx="34" cy="32" r="7" stroke="black" stroke-width="2"/>
<path d="M33.75 19V19C35.1982 20.7378 35.1982 23.2622 33.75 25V25" stroke="black" stroke-width="2"/>
<path d="M43.2422 22.5V22.5C43.0374 24.7529 41.2524 26.5378 38.9995 26.7426V26.7426" stroke="black" stroke-width="2"/>
<path d="M25.0176 41.5103V41.5103C25.2224 39.2574 27.0073 37.4724 29.2602 37.2676V37.2676" stroke="black" stroke-width="2"/>
<path d="M47 31.25V31.25C45.2622 32.6982 42.7378 32.6982 41 31.25V31.25" stroke="black" stroke-width="2"/>
<path d="M34.5 45.25V45.25C33.0518 43.5122 33.0518 40.9878 34.5 39.25V39.25" stroke="black" stroke-width="2"/>
<path d="M21 32.75V32.75C22.7378 31.3018 25.2622 31.3018 27 32.75V32.75" stroke="black" stroke-width="2"/>
<path d="M24.5 23.2676V23.2676C26.7529 23.4724 28.5378 25.2573 28.7426 27.5102V27.5102" stroke="black" stroke-width="2"/>
<path d="M43.5098 41.2427V41.2427C41.2569 41.0379 39.4719 39.2529 39.2671 37V37" stroke="black" stroke-width="2"/>
<path d="M32.625 44.875L14.2981 40.078C14.1445 40.0378 14.0668 39.8664 14.1378 39.7244L15.8606 36.2788C15.9322 36.1357 15.8528 35.9632 15.6977 35.9244L8.75006 34.1875C8.51476 34.1287 8.49265 33.8029 8.71785 33.7129L17.4831 30.2068C17.6834 30.1266 17.695 29.8475 17.5021 29.751L14.4329 28.2164C14.2513 28.1257 14.2479 27.8678 14.427 27.7722L29 20" stroke="black" stroke-width="2"/>
</svg>
